<svg viewBox="0 0 541.52 314.35" xmlns="http://www.w3.org/2000/svg" xmlns:xlink="http://www.w3.org/1999/xlink"><radialGradient id="a" cx="-783.58" cy="892.81" gradientTransform="matrix(143.56 22.81 -17.91 112.69 128766.72 -82694.17)" gradientUnits="userSpaceOnUse" r=".54"><stop offset="0" stop-color="#f85e80"/><stop offset=".03" stop-color="#f85e80"/><stop offset=".45" stop-color="#f85480"/><stop offset=".75" stop-color="#f8507a"/><stop offset="1" stop-color="#f84a70"/></radialGradient><radialGradient id="b" cx="-783.88" cy="895.9" gradientTransform="matrix(156.23931608 24.82974248 -24.82974248 156.23931608 145021.37 -120495.52)" r=".54" xlink:href="#a"/><radialGradient id="c" cx="-783.47" cy="895.93" gradientTransform="matrix(155.82 16.81 -16.81 155.82 137442.69 -126411.19)" gradientUnits="userSpaceOnUse" r=".54"><stop offset="0" stop-color="#ffffe5"/><stop offset=".03" stop-color="#ffffe5"/><stop offset=".45" stop-color="#ffe5e5"/><stop offset=".66" stop-color="#ffdfdf"/><stop offset=".94" stop-color="#ffcdcd"/><stop offset="1" stop-color="#ffc8c8"/></radialGradient><radialGradient id="d" cx="303.26460000001" cy="49.70550000001" gradientUnits="userSpaceOnUse" r="65.1726"><stop offset="0" stop-color="#8f86d9"/><stop offset=".31" stop-color="#8f86d9"/><stop offset="1" stop-color="#8f72c2"/></radialGradient><radialGradient id="e" cx="303.26460000001" cy="49.70550000001" gradientUnits="userSpaceOnUse" r="65.1726"><stop offset="0" stop-color="#ffefe6"/><stop offset=".31" stop-color="#ffefe6"/><stop offset="1" stop-color="#ffcbce"/></radialGradient><radialGradient id="f" cx="303.26460000001" cy="49.70550000001" gradientUnits="userSpaceOnUse" r="65.1726"><stop offset="0" stop-color="#f85881"/><stop offset=".31" stop-color="#f85881"/><stop offset="1" stop-color="#f84b74"/></radialGradient><radialGradient id="g" cx="-689.02" cy="841.45" gradientTransform="matrix(10 -6.27 6.27 10 1868.64 -12582.88)" gradientUnits="userSpaceOnUse" r=".54"><stop offset="0" stop-color="#90aa9e"/><stop offset=".45" stop-color="#889d8f"/><stop offset="1" stop-color="#819081"/></radialGradient><radialGradient id="h" cx="-799.34" cy="1014.54" gradientTransform="matrix(10.08 6.15 6.15 -10.08 2109.06 15257.52)" r=".54" xlink:href="#g"/><ellipse cx="270.76" cy="299.78" opacity=".1" rx="270.76" ry="14.57"/><path d="m541.52 302.4c-38.24-111.74-144.17-192.07-268.86-192.07s-230.66 80.33-268.86 192.07z" fill="#c9b3ff" opacity=".2"/><path d="m120.51 302h294.32s-36.09-79.92-117.77-82.91-176.55 82.91-176.55 82.91z" fill="#26843f"/><ellipse cx="154.64" cy="203.82" fill="#248943" rx="41.4" ry="87.46" transform="matrix(.87368733 -.48648788 .48648788 .87368733 -79.62 100.97)"/><path d="m197.19 282.1a1.84 1.84 0 0 1 -1.62-1l-82-147.21a1.85 1.85 0 0 1 .72-2.52 1.78 1.78 0 0 1 .9-.24 1.87 1.87 0 0 1 1.62 1l13.5 24.24 2.87-19.37a1.86 1.86 0 0 1 1.84-1.58 1.18 1.18 0 0 1 .26 0 1.85 1.85 0 0 1 1.57 2.1l-3.55 24.14 65.51 117.65a1.86 1.86 0 0 1 -.72 2.52 1.81 1.81 0 0 1 -.9.27z" fill="#4ec677"/><path d="m82.82 302c.31-16 12.17-27.61 13.06-38.24 1.33-15.91-7.71-27.64-9.65-42-1.7-12.65 6.91-27.88 22.64-23.33 17 4.92 15.79 22.1 26.88 32.58 8.05 7.61 32.53 14.91 41.37 31.63 6.08 11.52 5.19 26.62 10.08 39.37z" fill="#4ec677"/><path d="m108.91 302h74.31c-3.17-18.86-24.77-40.43-55.46-53.13-30.87-12.78-61.58-12.72-77.07-1.42 3 18.95 24.65 40.69 55.52 53.47z" fill="#339950"/><path d="m164.56 302.71-76.45-35.87-16.36 5.31a2.09 2.09 0 0 1 -.5.08 1.61 1.61 0 0 1 -1.54-1.13 1.63 1.63 0 0 1 1-2l13.07-4.23-28.78-13.57a1.62 1.62 0 0 1 .69-3.08 1.65 1.65 0 0 1 .69.15l65 30.52-3.54-25a1.62 1.62 0 0 1 1.38-1.83h.23a1.61 1.61 0 0 1 1.59 1.4l3.85 27.09 13.15 6.18-5.04-36.28 1.12.52 2.06 1 .32.16 5.1 36.23 27.89 13.08-.29 1.28z" fill="#4ec677"/><ellipse cx="395.39" cy="203.82" fill="#248943" rx="87.46" ry="41.4" transform="matrix(.48648788 -.87368733 .87368733 .48648788 24.97 450.12)"/><path d="m352.84 282.1a1.84 1.84 0 0 0 1.62-1l82-147.21a1.85 1.85 0 0 0 -.72-2.52 1.78 1.78 0 0 0 -.9-.24 1.87 1.87 0 0 0 -1.62 1l-13.5 24.24-2.87-19.37a1.86 1.86 0 0 0 -1.84-1.58 1.18 1.18 0 0 0 -.26 0 1.85 1.85 0 0 0 -1.57 2.1l3.55 24.14-65.51 117.68a1.86 1.86 0 0 0 .72 2.52 1.81 1.81 0 0 0 .9.24z" fill="#4ec677"/><path d="m467.21 302c-.31-16-12.17-27.61-13.06-38.24-1.33-15.91 7.71-27.64 9.65-42 1.7-12.65-6.91-27.88-22.64-23.33-17 4.92-15.79 22.1-26.88 32.58-8 7.61-32.53 14.91-41.37 31.63-6.08 11.52-5.19 26.62-10.08 39.37z" fill="#4ec677"/><path d="m441.12 302h-74.31c3.18-18.86 24.77-40.43 55.46-53.13 30.87-12.78 61.58-12.72 77.07-1.42-3 18.95-24.65 40.69-55.52 53.47z" fill="#339950"/><path d="m385.47 302.71 76.45-35.87 16.36 5.31a2.09 2.09 0 0 0 .5.08 1.61 1.61 0 0 0 1.54-1.13 1.63 1.63 0 0 0 -1-2l-13.07-4.23 28.75-13.57a1.62 1.62 0 0 0 -.69-3.08 1.65 1.65 0 0 0 -.69.15l-65 30.52 3.54-25a1.62 1.62 0 0 0 -1.38-1.83h-.23a1.61 1.61 0 0 0 -1.59 1.4l-3.85 27.09-13.11 6.16 5.1-36.26-1.12.52-2.06 1-.32.16-5.1 36.23-27.89 13.08.29 1.28z" fill="#4ec677"/><path d="m225.68 32.43c-3.66 1-48.82 18.66-26.33 37s-15.22 24.5-26.67 36.44c-20.4 21.26.87 42.88.87 42.88s44.8.35 121.68-32.08c28.25-11.91-57-46-71.12-53.34s9.89-22.53 9.89-22.53z" fill="#8f352b"/><path d="m245.7 38.36a14.65 14.65 0 1 1 -14.64-14.64 14.64 14.64 0 0 1 14.64 14.64z" fill="#8747fc"/><path d="m240.06 49.44h.05m-.11-4.44-1.41 9.37 10.16 5.37zm-6.49-10.93-3.24 20.31s2.63 12.37 9.71 18.25c.26.21.51.4.77.58a121.14 121.14 0 0 0 -3.12-19.35l.58.31c-2.22-3.3-1.59-8.69-.5-13l-4.2-7.07" fill="#8f352b"/><path d="m277.47 95.35c-23.31-13.26-15.82-28.77-15.82-28.77l-24.07-12.73c4.29 18.39 3.75 28.47 1.87 34.82-2.56 8.66-21.88 8.66-23.45 14.54 0 0 49.78 45.86 61.24 39.38 6.51-3.69 53.13-38.08.23-47.24" fill="#f4ab87"/><path d="m264.86 84.85c-7.31-9.78-3.21-18.27-3.21-18.27l-24.07-12.73c2.37 10.18 11.87 39.42 23.91 39 4-.15 2.7-6.47 3.37-8" fill="#d16e61" opacity=".63"/><path d="m316.53 236.65h-89.95l-16.7 77.7h55.69 12.07 50.46z" fill="#15003f"/><path d="m212.62 314.35h19.39l13-44.3s54.94 4.7 69.59-15.69-6.65-17.78-6.65-17.78l.12-.21h-34.8v.13l-44.06.15z" fill="#0c0028"/><path d="m317.14 115.07c-7.94-13.02-28.14-16.57-28.14-16.57l12.55 66c48.67 39.2 51.6 47.29 65.53 11.76 0 0-42.91-49.76-49.9-61.22" fill="#3d0093"/><path d="m322.34 166.66q-1.8-13.41-3.61-26.84a79.12 79.12 0 0 1 1.74-19.93c-1.45-2-2.59-3.61-3.33-4.82-7.94-13.02-28.14-16.57-28.14-16.57l12.55 66c12.73 10.25 22.33 18.37 29.81 24.14a102.69 102.69 0 0 1 -9.02-21.98z" opacity=".2"/><path d="m309.36 157.08c14.64-25.63-.37-49.23-.37-49.23s-1.12-7-27.09-11.61c.05.34 2.83 1.28 1.79 2.54-3.4 4.19-10.94 11.75-10.94 11.75-12.9 2.09-42.26-13.36-41.94-15a53.34 53.34 0 0 0 -30.71 16.72l-54.95 67.42s3.48 32.17 37.26 24.53l35.42-34.58 17 34.39-22.75 45.5s76.23 29.68 120-6.28l-21.19-40.79s-6.24-29.67-1.53-45.36z" fill="#3d0093"/><path d="m248.17 202.84c-.32-8.47-12.56-29.81-12.56-29.81l19.62-7.45c-27.07.39-36.89-32.79-37.37-36.4-2.44 1.3-32.85 58.56-39.5 60.73a40.39 40.39 0 0 1 -20.67 4.62 57.33 57.33 0 0 1 -7.1-.47c5 7.39 14.34 14.1 31.82 10.15l35.42-34.58 17 34.39-22.75 45.5s46.28 8.18 36.09-46.68z" opacity=".2"/><path d="m245.42 60.66.1.05z" fill="url(#a)"/><path d="m247.88 61.06.1.07z" fill="url(#b)"/><path d="m241.57 44.12v-.06" fill="url(#c)"/><path d="m263.4 18.72-10.4 6.9c5-1 9.59-1.9 13.66-2.72l-3.24-4.18" fill="url(#d)"/><path d="m266.64 22.9c-4.07.82-8.68 1.74-13.66 2.72l-13 8.62a48.51 48.51 0 0 0 -2.3 6.89l2.32 3.87.33-2.18 39.78-2.59z" fill="url(#e)"/><path d="m238.16 54.16c.11.15.22.31.34.46v-.26l-.38-.2" fill="url(#f)"/><path d="m259.8 15.66c-55.29.72-25.29 52.25-23.23 45 1.82 9.47 10.84 18.27 20.9 20.23 19.27 3.76 23-21.71 23-21.71a129.69 129.69 0 0 1 -.6-13.43c.79-18.93-1.58-30.59-20.07-30.09z" fill="#f4ab87"/><path d="m274.31 12.73s-15.49-10.73-25.22-9.37c-11.17 1.55-37.54 31.69-19.5 49.93 0 0-.27-22.52 6.86 2.25l2-6.72c13.55-3.82 33.61-28.23 29.55-29.82l10.54 9 1.63 12.74c36.51-28.01 9.26-30.44-5.86-28.01z" fill="#8f352b"/><path d="m262.01 113.85v-.01z" fill="#ffcd91"/><path d="m259.1 155.29a.4.4 0 0 0 .29.11z" fill="url(#g)"/><path d="m297.35 117.39a.39.39 0 0 0 -.29.1 2 2 0 0 1 .29-.1" fill="url(#h)"/><path d="m204.91 224.89-19.15-46.41c-15.28-21.31-57.81 1.23-42.22 23.72 1.81 2.61 41.81 30.17 53.17 38a161.34 161.34 0 0 0 8.2-15.31z" fill="#f4ab87"/><path d="m175.7 225.65q6.8-4 13.6-8l10.19-5.93-13.73-33.28c-15.28-21.31-57.81 1.23-42.22 23.72 1.14 1.68 17.46 13.22 32.16 23.49z" fill="#3d0093"/><path d="m181.11 215.08c-6.52-6.31-13-12.68-19.31-19.19q-8-8.23-15.61-16.87c-6.12 6.14-8.55 14.66-2.65 23.18 1.14 1.64 17.42 13.18 32.16 23.45q5.12-3 10.23-6c-1.61-1.52-3.24-3.03-4.82-4.57z" opacity=".2"/><path d="m263.38 45.28 3.86 10.09.67-.1a7.9 7.9 0 0 1 1.09-.07 5.26 5.26 0 0 1 2.05.34 1.5 1.5 0 0 1 .59.45 1.08 1.08 0 0 1 .21.72 4.26 4.26 0 0 1 -.53 1.8 16.9 16.9 0 0 1 -2 3 .83.83 0 0 0 .13 1.19.85.85 0 0 0 1.19-.13 18.62 18.62 0 0 0 2.21-3.35 5.85 5.85 0 0 0 .7-2.54 2.85 2.85 0 0 0 -.55-1.68 3.16 3.16 0 0 0 -.92-.8 4.64 4.64 0 0 0 -1.59-.55 8.09 8.09 0 0 0 -1.5-.12 12.19 12.19 0 0 0 -1.37.08l.13.84.79-.3-3.54-9.47a.85.85 0 1 0 -1.58.6z" fill="#d16e61"/><path d="m258.81 47.86c0 1.67-1 3-2.15 3s-2.14-1.35-2.14-3 1-3 2.14-3 2.15 1.34 2.15 3z" fill="#2d2d2d"/><path d="m274.22 47.19c0 1.67-1 3-2.15 3s-2.14-1.35-2.14-3 1-3 2.14-3 2.15 1.34 2.15 3z" fill="#2d2d2d"/><path d="m257.17 67.06a7.76 7.76 0 0 0 1.34 1.84 6.25 6.25 0 0 0 1.71 1.27 5.33 5.33 0 0 0 2.47.6 7.31 7.31 0 0 0 3.72-1.14.84.84 0 0 0 .29-1.16.83.83 0 0 0 -1.15-.29 5.64 5.64 0 0 1 -2.86.9 3.75 3.75 0 0 1 -1.71-.41 5.4 5.4 0 0 1 -1.72-1.47 6 6 0 0 1 -.43-.64l-.11-.18-.22.1.22-.1-.22.1.22-.1a.85.85 0 0 0 -1.53.73z" fill="#d16e61"/><path d="m311.36 112.67 26.54 32.56a.84.84 0 0 0 1.19.13.85.85 0 0 0 .12-1.19l-26.54-32.57a.84.84 0 0 0 -1.19-.13.85.85 0 0 0 -.12 1.2" fill="#fff"/><path d="m194.27 205.9c-9.5 4.16-18.92 8.57-28.39 12.87 3.23 2.28 6.56 4.6 9.82 6.88q6.8-4 13.6-8l10.19-5.93-2.81-6.82c-.8.36-1.61.67-2.41 1z" fill="#8747fc"/><path d="m179.35 212.61c-4.49 2-9 4.12-13.47 6.16 3.23 2.28 6.56 4.6 9.82 6.88l10.51-6.16q-3.46-3.41-6.86-6.88z" fill="#5e32b0"/><path d="m379.35 254.92 130.82-52.86a10.29 10.29 0 0 0 5.68-13.38l-73.65-182.25a10.27 10.27 0 0 0 -13.37-5.68l-130.83 52.86a10.29 10.29 0 0 0 -5.67 13.39l73.67 182.24a10.27 10.27 0 0 0 13.35 5.68z" fill="#d1d3d4"/><path d="m372.73 247.67 137.17-55.42-74.45-184.25-137.17 55.42z" fill="#e6e7e8"/><path d="m504.45 178.76-69-170.76-137.17 55.42 77.93 174.92z" fill="#dadada"/><path d="m368.7 229.67 154.47-57.87-87.72-163.8-137.17 55.42z" fill="#fff"/><path d="m328.13 51.66 12.38-5 14.49-5.84 11.65-4.71.74-.29 11.61-4.71 14.44-5.83 12.38-5 3.18 7.93c.57 1.41-.58 3.22-2.57 4l-10.54 4.26-16.29 6.58s-1.36 2.7-7.43 5.15-9.38 1.65-9.38 1.65l-16.29 6.58-10.5 4.28c-2 .8-4.07.3-4.65-1.11l-3.2-7.94m-2.51 1 3.21 7.94c1.15 2.84 4.73 4 8.16 2.6l10.52-4.2 15.62-6.31c1.61.15 5.06.1 10.05-1.92s7.18-4.17 8.18-5.45l15.54-6.32 10.54-4.25c3.43-1.39 5.21-4.7 4.06-7.55l-3.2-7.93a2.7 2.7 0 0 0 -3.52-1.49l-12.39 5-14.41 5.82-11.65 4.71-.74.3-11.65 4.71-14.46 5.83-12.39 5a2.7 2.7 0 0 0 -1.49 3.52z" fill="#b2b2b2"/><path d="m327.66 50.5 12.38-5 14.44-5.83 11.65-4.67.74-.3 11.65-4.7 14.48-5.89 12.38-5 3.17 7.89c.57 1.42-.58 3.22-2.57 4l-10.54 4.26-16.29 6.58s-1.36 2.69-7.43 5.15-9.38 1.64-9.38 1.64l-16.29 6.58-10.54 4.26c-2 .81-4.07.31-4.65-1.11l-3.2-7.93m-2.51 1 3.21 7.93c1.15 2.85 4.73 4 8.16 2.6l10.54-4.25 15.62-6.31a22 22 0 0 0 10.05-1.92c4.87-2 7.18-4.17 8.18-5.45l15.54-6.28 10.55-4.18c3.43-1.38 5.21-4.7 4.06-7.54l-3.2-7.94a2.71 2.71 0 0 0 -3.52-1.49l-12.39 5-14.43 5.83-11.65 4.71-.74.3-11.65 4.7-14.48 5.86-12.39 5a2.71 2.71 0 0 0 -1.46 3.51z" fill="#dadada"/><path d="m335 51.23-4-9.95a5 5 0 0 1 2.78-6.54l13.6-5.49 29.1-11.76 13.52-5.49a5 5 0 0 1 6.54 2.78l4 10z" fill="#2d2d2d"/><path d="m269.23 16a12.42 12.42 0 0 1 .1 1.76 23 23 0 0 1 -4.73 13.69c-4.12 5.5-11.8 11.11-26.17 14.05l.29 1.43c14.62-3 22.69-8.77 27.06-14.6a24.47 24.47 0 0 0 5-14.57 12.87 12.87 0 0 0 -.12-2l-1.45.22z" fill="#8f352b"/><path d="m263.59 163.09s16-10.46 27.2-2.35c-8.11 4.97-23.79 6.26-27.2 2.35z" opacity=".2"/><path d="m191.87 249.67 181.18-153.73a2.37 2.37 0 0 1 3.1 3.58l-180.85 159.92a2.42 2.42 0 0 1 -.74.44c-1.62.61-7.21 2.22-5.82-5a9.21 9.21 0 0 1 3.13-5.21z" fill="#c9b3ff"/><path d="m224.73 236.86c-1.85-6-5.47-8.41-5.47-8.41l1.34-3.56c-3.67-2.44-15.52.53-15.52.53-5.6-2.24-13.55 8.73-11.41 12l5.33 8.58s.52 3.66 6.45 4.88 20.04-11.55 19.28-14.02z" fill="#f4ab87"/><path d="m344.7 89.82a6.73 6.73 0 0 1 -3.7-1.47 9.12 9.12 0 0 1 -3-7.73 6.82 6.82 0 0 1 1.64-3.62 9.2 9.2 0 0 1 3.65-2.48 12.33 12.33 0 0 1 2.79-.76 8.07 8.07 0 0 1 2.55.08l1.37 3.39a6.17 6.17 0 0 0 -2.39-.23 9.94 9.94 0 0 0 -2.67.69 4.78 4.78 0 0 0 -2.8 2.31 4.85 4.85 0 0 0 2.36 6 4.72 4.72 0 0 0 3.59-.18 9.58 9.58 0 0 0 2.44-1.36 7.06 7.06 0 0 0 1.69-1.91l1.32 3.33a10.73 10.73 0 0 1 -8.84 4z"/><path d="m349.81 72.33 6.27-2.49a6 6 0 0 1 4.33-.28 4.85 4.85 0 0 1 2.79 3 5.35 5.35 0 0 1 .38 2.92 4.48 4.48 0 0 1 -1.27 2.39l4.4 3.89-3.63 1.44-3.95-3.49-2 .79 1.73 4.37-3.54 1.4zm8.26 4.37a3 3 0 0 0 1.48-1.06 2.2 2.2 0 0 0 -1.11-2.84 3.15 3.15 0 0 0 -1.8.26l-2.12.84 1.48 3.63z"/><path d="m369.58 74.5-8.58-6.61 3.77-1.49 5.3 4.16 1.15-6.71 3.78-1.49-1.89 10.74 2.1 5.31-3.53 1.4z"/><path d="m375.88 62 6.12-2.43a6.13 6.13 0 0 1 4.4-.26 4.84 4.84 0 0 1 2.87 3 5 5 0 0 1 0 4.21 6.08 6.08 0 0 1 -3.39 2.83l-2.62 1 1.65 4.17-3.51 1.48zm8.28 4.59a3 3 0 0 0 1.49-1.1 1.85 1.85 0 0 0 0-1.75 1.75 1.75 0 0 0 -1.18-1.24 3.26 3.26 0 0 0 -1.84.26l-2.05.81 1.51 3.84z"/><path d="m392.48 58.87-3.93 1.56-1.18-3 11.42-4.52 1.18 3-4 1.57 4.34 11-3.53 1.39z"/><path d="m407.75 64.81a7.44 7.44 0 0 1 -3.75-1.49 8.4 8.4 0 0 1 -3-7.58 7.35 7.35 0 0 1 1.68-3.64 9 9 0 0 1 7.62-3 7.37 7.37 0 0 1 3.71 1.51 8 8 0 0 1 2.51 3.39 7.72 7.72 0 0 1 .52 4.17 7.29 7.29 0 0 1 -1.67 3.63 9 9 0 0 1 -7.62 3zm4.62-5.15a3.81 3.81 0 0 0 .85-1.93 4.85 4.85 0 0 0 -1.64-4.18 3.83 3.83 0 0 0 -1.93-.83 4.21 4.21 0 0 0 -2.15.28 4.36 4.36 0 0 0 -1.79 1.27 4 4 0 0 0 -.84 1.93 4.46 4.46 0 0 0 .32 2.29 4.36 4.36 0 0 0 1.34 1.89 3.71 3.71 0 0 0 1.94.83 4.45 4.45 0 0 0 2.15-.3 4.29 4.29 0 0 0 1.75-1.25z"/><circle cx="415.32" cy="105.35" fill="#c9b3ff" r="22.3"/><circle cx="415.32" cy="105.35" fill="#7600ff" r="18.76"/><path d="m421.23 110.56a7.63 7.63 0 0 1 -5.43 2.62 7.72 7.72 0 1 1 -.73-15.42h.51a7.71 7.71 0 0 1 6 3.08l1 1.37 2.74-2.06-1-1.37a11.18 11.18 0 0 0 -7.12-4.3v-4h-3.4v4a11.14 11.14 0 0 0 0 22v4.33h3.42v-4.35a11 11 0 0 0 6.58-3.65l1.13-1.28-2.57-2.26z" fill="#fff"/><circle cx="377.66" cy="143.66" fill="#4ec677" r="17.98"/><circle cx="377.66" cy="143.66" fill="#248943" r="15.12"/><path d="m382.43 147.87a6.22 6.22 0 1 1 -5-10.32h.41a6.2 6.2 0 0 1 4.86 2.48l.83 1.1 2.21-1.65-.83-1.11a9 9 0 0 0 -5.74-3.47v-3.26h-2.76v3.24a9 9 0 0 0 0 17.77v3.49h2.76v-3.51a8.88 8.88 0 0 0 5.3-2.94l.91-1-2.07-1.82z" fill="#fff"/><circle cx="430.52" cy="151.46" fill="#ffc969" r="17.98"/><circle cx="430.52" cy="151.46" fill="#fcb629" r="15.12"/><path d="m435.28 155.67a6.22 6.22 0 1 1 -5-10.32h.42a6.18 6.18 0 0 1 4.85 2.49l.83 1.1 2.21-1.66-.83-1.1a9 9 0 0 0 -5.74-3.47v-3.26h-2.76v3.24a9 9 0 0 0 0 17.76v3.49h2.76v-3.51a9 9 0 0 0 5.31-2.93l.91-1-2.08-1.82z" fill="#fff"/></svg>