<svg xmlns="http://www.w3.org/2000/svg" viewBox="0 0 538.88 325.98"><defs><style>.cls-1{fill:#c9b3ff;opacity:0.2;}.cls-2{opacity:0.1;}.cls-3{fill:#15003f;}.cls-4{fill:#e6e7e8;}.cls-19,.cls-5{fill:#fff;}.cls-6{fill:#f7f7f7;}.cls-7{fill:#ddd;}.cls-8{fill:#3d0093;}.cls-9{fill:#bcbec0;}.cls-10{fill:#e88063;}.cls-11{fill:#f5af90;}.cls-12{fill:#494554;}.cls-13{fill:#fcf5f2;}.cls-14{fill:#754c29;}.cls-15,.cls-16{fill:#9b5cff;}.cls-15{opacity:0.14;}.cls-17{fill:#23005b;}.cls-18{fill:#3a1287;}.cls-19{opacity:0.75;}.cls-20{fill:#8747fc;}.cls-21{fill:#5820cc;}.cls-22{fill:#4ec677;}.cls-23{fill:#fcb629;}.cls-24{fill:#339950;}.cls-25{fill:none;stroke:#fff;stroke-linecap:round;stroke-miterlimit:10;stroke-width:4.23px;}</style></defs><g id="Layer_2" data-name="Layer 2"><g id="Layer_1-2" data-name="Layer 1"><path class="cls-1" d="M538.88,305.23C500.64,193.49,394.72,113.16,270,113.16S39.41,193.49,1.16,305.23Z"/><ellipse id="_Path_" data-name="&lt;Path&gt;" class="cls-2" cx="269.02" cy="308.8" rx="269.02" ry="17.18"/><g id="character"><path class="cls-3" d="M302,145.06s-.23,4.05,0,22.9c.17,14,20,136.76,20,136.76h21.37l-7.47-137.91L363.7,304.72h20.73s-15.72-133-17.33-149.35c-2.82-28.52-27.26-38-27.26-38Z"/><path class="cls-4" d="M47.11,273.28,129.7,233.4S231.23,206,287.19,267.15l-15,36.25Z"/><path class="cls-5" d="M488.08,271.6l-49.57-38.2s-76.9-26.76-142.86,22.13L272.2,287.42Z"/><path class="cls-6" d="M70.37,223.06s56.51-33,100.19-32.79h62.86l53.77,76.88L271.6,292.33S237.8,195.16,70.37,223.06Z"/><path class="cls-5" d="M271.6,292.33S245.24,181.57,103,179.55c0,0,99.86-16.14,165,9.09,0,0,33.55,24.29,37.22,72.22Z"/><path class="cls-4" d="M103,179.55a127.26,127.26,0,0,1,13.81-.43c4.61.07,9.22.35,13.82.77a188.63,188.63,0,0,1,27.3,4.6c1.13.27,2.24.57,3.36.86s2.23.61,3.35.92,2.22.65,3.32,1l1.66.52,1.65.54q6.59,2.19,13,4.88c4.27,1.78,8.45,3.8,12.54,6s8.1,4.51,12,7,7.63,5.27,11.27,8.14l2.71,2.19,2.64,2.26c.89.74,1.73,1.54,2.59,2.32s1.72,1.56,2.53,2.38a148.1,148.1,0,0,1,18.09,21.06,158.51,158.51,0,0,1,13.89,24,179.14,179.14,0,0,1,9.72,25.87A206.69,206.69,0,0,0,261.45,269c-.27-.51-.51-1-.78-1.54l-.81-1.51-1.63-3-1.73-3-.86-1.49c-.29-.49-.6-1-.9-1.46l-1.82-2.91c-.61-1-1.26-1.91-1.89-2.87l-.95-1.43c-.32-.47-.66-.93-1-1.4l-2-2.79c-.68-.92-1.39-1.82-2.08-2.73l-1-1.37-1.08-1.32c-.73-.89-1.43-1.79-2.17-2.66l-2.24-2.59c-.73-.88-1.53-1.7-2.3-2.55s-1.53-1.69-2.35-2.49l-2.4-2.44L229,225.09c-.82-.8-1.67-1.56-2.52-2.33s-1.68-1.54-2.56-2.27l-2.61-2.22-2.67-2.14q-5.38-4.22-11.13-8a162.67,162.67,0,0,0-24.14-12.93q-6.28-2.73-12.78-5l-1.62-.56-1.63-.53-1.64-.52c-.54-.18-1.09-.34-1.64-.51-1.09-.33-2.19-.67-3.29-1s-2.2-.64-3.31-.92c-4.42-1.18-8.9-2.19-13.39-3.07s-9-1.6-13.59-2.16c-2.27-.3-4.56-.54-6.84-.76s-4.58-.37-6.87-.51-4.59-.22-6.89-.26S105.25,179.45,103,179.55Z"/><path class="cls-4" d="M272.2,287.42s-45.73-92.94-201.83-64.36C70.37,223.06,202.34,195.35,272.2,287.42Z"/><path class="cls-7" d="M272.2,287.42s-.65-71-177.7-23.87l-47.39,9.73L30.66,303.4H505.2l-17.12-31.8S432.14,258,373.56,252.06,279.44,271.43,272.2,287.42Z"/><path class="cls-8" d="M508.82,301.82H289c-.59-5.43-3.49-15.19-16.84-14.4-14.69.86-17,10.53-17.28,14.4H29.28a3.49,3.49,0,0,0-3.49,3.49h0a3.49,3.49,0,0,0,3.49,3.49H508.82a3.49,3.49,0,0,0,3.49-3.49h0A3.49,3.49,0,0,0,508.82,301.82Z"/><path class="cls-9" d="M272.2,287.42s11.16-24.05,32.95-38.38C305.15,249,273.57,260.5,272.2,287.42Z"/><path class="cls-9" d="M96.79,278.82s104.06-30.77,163.52,5.05C260.31,283.87,203.23,258.14,96.79,278.82Z"/><path class="cls-9" d="M296.1,283.45s53.34-20,109.24-6.7C405.34,276.75,345.85,254.25,296.1,283.45Z"/><polygon class="cls-10" points="256.64 183.43 256.15 185.39 248.13 183.08 250.4 180.13 256.64 183.43"/><path class="cls-11" d="M295.16,136.49l-4.94-4.88-16.81,5,3.42,12.5S263,159.77,247.76,178.38l0,0-2.29,3-1.62,3.91a3.25,3.25,0,0,0,2.59-.52,16.08,16.08,0,0,0,2.71-2.95,2.55,2.55,0,0,1,3.21-.69l4.3,2.28s38.18-20.33,39.47-26.86S295.16,136.49,295.16,136.49Z"/><path class="cls-10" d="M273.41,136.62l16.52-4.72,5.23,4.59s1.55,6.31,1,11.23c0,0-5.88,4.74-19.35,1.4Z"/><path class="cls-8" d="M307.08,148.83l-45.8-45.21S262.83,85.7,275.93,75s38.43-9,38.43-9l28.19,56.88Z"/><polygon class="cls-8" points="261.28 103.62 265.31 139.25 289.93 131.9 261.28 103.62"/><polygon class="cls-8" points="314.36 65.97 350.05 80.07 334 105.6 314.36 65.97"/><path class="cls-11" d="M247.29,48l6.6,20.28a15.14,15.14,0,0,0,14.27,10.47h0a22.58,22.58,0,0,0,7,7.27l11.59,6.44,1.42-10.25a23.36,23.36,0,0,0-2.09-13.35L271.5,38.51Z"/><path d="M260.58,63.07c.29.74.92,1.19,1.4,1s.63-.94.33-1.68-.91-1.2-1.39-1S260.29,62.32,260.58,63.07Z"/><path d="M254.7,65.53c.26.67.83,1.08,1.26.91s.57-.85.3-1.53-.83-1.07-1.26-.9S254.43,64.86,254.7,65.53Z"/><path class="cls-10" d="M258.17,61.52a17.44,17.44,0,0,0,0,2.8,20.08,20.08,0,0,0,.43,2.78,12,12,0,0,0,.41,1.38,5.08,5.08,0,0,0,.35.7,1.27,1.27,0,0,0,.34.37.89.89,0,0,0,.17.08.48.48,0,0,0,.22,0,.72.72,0,0,0,.28-.06,4.67,4.67,0,0,0,1.26-.77,6,6,0,0,0,1-1c-.42.22-.83.44-1.24.62a5.94,5.94,0,0,1-1.23.45s-.14,0-.06,0h.05s0,0,0,0a1.74,1.74,0,0,1-.1-.16,4.54,4.54,0,0,1-.22-.57c-.13-.41-.24-.85-.34-1.29l-.61-2.68C258.7,63.31,258.48,62.41,258.17,61.52Z"/><path d="M255.72,59.44s-2.18,3.46-5.8,4.05A5,5,0,0,1,255.72,59.44Z"/><path d="M264.17,57.59s-3.41,2.26-7,1.33A5.06,5.06,0,0,1,264.17,57.59Z"/><path class="cls-12" d="M256,68.71a3.42,3.42,0,1,1,1.93-4.43A3.42,3.42,0,0,1,256,68.71Zm-2.39-6.08a3.12,3.12,0,1,0,4,1.76A3.12,3.12,0,0,0,253.56,62.63Z"/><path class="cls-12" d="M263.61,65.69a3.41,3.41,0,1,1,1.93-4.42A3.42,3.42,0,0,1,263.61,65.69Zm-2.39-6.08a3.12,3.12,0,1,0,4,1.77A3.13,3.13,0,0,0,261.22,59.61Z"/><path class="cls-13" d="M260.14,72.64a10.19,10.19,0,0,0,5.52-3.53S266.4,77,260.14,72.64Z"/><path class="cls-14" d="M273.44,42.56s-7.22,8.62-22.86,15.59c0,0-8.53-7.53-3.61-14.57s25.59-6.11,25.59-6.11Z"/><path class="cls-14" d="M266.38,43.16S266.06,54,277,51.68l9.73,18.39,12.46-13S284,36.37,275.83,33.13c-12.78-5-21.89,6.15-21.89,6.15Z"/><ellipse class="cls-11" cx="279.73" cy="53.89" rx="6.51" ry="3.99" transform="translate(169.99 316.78) rotate(-78.25)"/><path class="cls-10" d="M278.46,54.39c.3-1.16.47-2.29.79-3.35a4.67,4.67,0,0,1,.65-1.43,1.69,1.69,0,0,1,.57-.49,2.4,2.4,0,0,1,.81-.22,1.66,1.66,0,0,0-.92-.15,1.8,1.8,0,0,0-.9.43,3.36,3.36,0,0,0-1,1.63,7,7,0,0,0-.26,1.8A6,6,0,0,0,278.46,54.39Z"/><rect class="cls-12" x="263.42" y="55.92" width="14.05" height="0.25" transform="translate(22.87 178.47) rotate(-38.02)"/><path class="cls-10" d="M268.16,78.77a10.05,10.05,0,0,0,7-3.81,1.21,1.21,0,0,1,2.16,1c-.44,2-1.82,4.67-5.36,7.58A14.62,14.62,0,0,1,268.16,78.77Z"/><path class="cls-8" d="M246.66,123.27a42,42,0,0,1-42,42h-8.59a42,42,0,1,1,0-84h8.59A42,42,0,0,1,246.66,123.27Zm-13.92,0a36.68,36.68,0,0,0-32.37-36.42,36.67,36.67,0,0,0,0,72.83A36.68,36.68,0,0,0,232.74,123.27Z"/><circle class="cls-15" cx="200.37" cy="123.27" r="36.66" transform="translate(46.6 301.3) rotate(-80.78)"/><path class="cls-16" d="M238.07,123.27a42,42,0,1,1-42-42A42,42,0,0,1,238.07,123.27Zm-5.33,0a36.67,36.67,0,1,0-36.67,36.66A36.67,36.67,0,0,0,232.74,123.27Z"/><polygon class="cls-17" points="332.22 164.6 239.09 138.56 241.55 129.4 335.21 153.42 332.22 164.6"/><path class="cls-17" d="M243,134.7c-.68,2.54-2.44,4.27-3.92,3.85s-2.1-2.77-1.42-5.29,2.4-4.24,3.88-3.86S243.69,132.15,243,134.7Z"/><path class="cls-18" d="M337.73,160.09c-.84,3.11-3.31,5.12-5.51,4.51S329,161,329.77,158s3.25-5.09,5.44-4.53S338.56,157,337.73,160.09Z"/><path class="cls-19" d="M196.91,93.15c-2.39,3.7,2.81,9,10.32,13.87s14.48,7.41,16.88,3.71-.81-12.11-8.32-17S199.31,89.45,196.91,93.15Z"/><path class="cls-11" d="M365.43,100.44c-2.31-7.9-18.16-16-18.16-16l-12,19.13,5.33,3.57c-8.91,2.57-26.22,39.53-26.22,39.53l-8.7,7.15a1.26,1.26,0,0,0,0,1.95c1.22,1,1.77,3.21,4.48,3.83a17.54,17.54,0,0,0,7.93,0s5.66-5.29,6.14-9.43h0C332.94,141.66,367.44,107.34,365.43,100.44Z"/><path class="cls-20" d="M286.77,92.48l7.39-2.22s1.19-17.35-7.48-20.19A60.06,60.06,0,0,1,286.77,92.48Z"/><path class="cls-20" d="M269.87,81.4s-1.71,10.14,13.69,16.34l3.21-5.26S276.57,87.2,269.87,81.4Z"/><path class="cls-10" d="M347.27,84.49s-3.8,17.38-9.57,20.77l-2.45-1.64,12-19.13Z"/></g><rect class="cls-21" x="378.52" y="4.23" width="105.59" height="81.31" rx="11.85"/><circle class="cls-22" cx="431.32" cy="45.53" r="27.47" transform="translate(302.38 459.64) rotate(-78.73)"/><path class="cls-5" d="M431.32,45.53l22.06,16.36a27.46,27.46,0,1,1,5.41-16.36Z"/><path class="cls-23" d="M431.32,45.53,406.93,58.18a27.47,27.47,0,1,1,51.86-12.65Z"/><circle class="cls-21" cx="431.32" cy="45.53" r="14.84" transform="translate(302.38 459.64) rotate(-78.73)"/><rect class="cls-16" x="64.7" width="113.3" height="51.56" rx="9.53"/><rect class="cls-5" x="81.22" y="14.04" width="77.81" height="2.49"/><rect class="cls-23" x="81.22" y="14.04" width="41.17" height="2.49"/><rect class="cls-5" x="81.22" y="24.54" width="77.81" height="2.49"/><rect class="cls-22" x="81.22" y="24.54" width="55.19" height="2.49"/><rect class="cls-5" x="81.22" y="35.26" width="77.81" height="2.49"/><rect class="cls-21" x="81.22" y="35.26" width="67.98" height="2.49"/><rect class="cls-24" x="39.46" y="80.03" width="97.66" height="74.68" rx="10.65"/><line class="cls-25" x1="75.5" y1="95.84" x2="124.94" y2="95.84"/><line class="cls-25" x1="75.5" y1="117.71" x2="124.94" y2="117.71"/><line class="cls-25" x1="75.5" y1="139.58" x2="124.94" y2="139.58"/><circle class="cls-22" cx="56.43" cy="96.3" r="7.75"/><circle class="cls-23" cx="56.43" cy="117.18" r="7.75"/><circle class="cls-21" cx="56.43" cy="138.07" r="7.75"/><rect class="cls-22" x="405.89" y="113.11" width="100.05" height="79.79" rx="10.59"/><path class="cls-5" d="M426.79,178.14h-2v-2.41h2v-2h2.56v2h2v2.41h-2v2h-2.56Z"/><path class="cls-5" d="M434,182.5a5.6,5.6,0,0,1-1.77-.66V179a7.18,7.18,0,0,0,1.86.84,6.9,6.9,0,0,0,1.94.3,3,3,0,0,0,1.9-.5,1.64,1.64,0,0,0,.62-1.35,1.5,1.5,0,0,0-.63-1.28,3,3,0,0,0-1.76-.45,7.85,7.85,0,0,0-1.34.12,5.79,5.79,0,0,0-1.22.33l-1.24-.71.51-6.61h8.18v2.65H436l-.16,2a6.91,6.91,0,0,1,1.79-.22,4.37,4.37,0,0,1,3.11,1.05,3.94,3.94,0,0,1,1.13,3,4.08,4.08,0,0,1-1.45,3.33,6.46,6.46,0,0,1-4.23,1.2A10,10,0,0,1,434,182.5Z"/><path class="cls-5" d="M448.28,172.35h-5.69V169.7h9.2v2.16L447,182.47h-3.29Z"/><path class="cls-5" d="M452.86,182.14a1.07,1.07,0,0,1-.34-.81,1.14,1.14,0,0,1,.34-.84,1.07,1.07,0,0,1,.81-.34,1.1,1.1,0,0,1,.83.34,1.14,1.14,0,0,1,.34.84,1.07,1.07,0,0,1-.34.81,1.13,1.13,0,0,1-.83.33A1.1,1.1,0,0,1,452.86,182.14Z"/><path class="cls-5" d="M458.53,182a5.3,5.3,0,0,1-2.06-2.3,8.13,8.13,0,0,1-.72-3.56,8.31,8.31,0,0,1,.71-3.56,5.32,5.32,0,0,1,2-2.3,6.52,6.52,0,0,1,6.26,0,5.26,5.26,0,0,1,2,2.3,8.31,8.31,0,0,1,.71,3.56,8.13,8.13,0,0,1-.72,3.56,5.34,5.34,0,0,1-2.05,2.3,6.5,6.5,0,0,1-6.21,0Zm5-3.19a4.47,4.47,0,0,0,.68-2.63,4.74,4.74,0,0,0-.67-2.68,2.37,2.37,0,0,0-3.82,0,4.74,4.74,0,0,0-.66,2.68,4.47,4.47,0,0,0,.67,2.63,2.38,2.38,0,0,0,3.8,0Z"/><path class="cls-5" d="M470.09,175.68a3.37,3.37,0,0,1-1.22-1.21,3.25,3.25,0,0,1-.45-1.68,3.32,3.32,0,0,1,3.35-3.36,3.44,3.44,0,0,1,1.69.44,3.38,3.38,0,0,1,1.67,2.92,3.25,3.25,0,0,1-.45,1.68,3.37,3.37,0,0,1-2.91,1.66A3.25,3.25,0,0,1,470.09,175.68Zm2.63-1.9a1.27,1.27,0,0,0,.38-.94,1.34,1.34,0,0,0-.38-1,1.33,1.33,0,0,0-1-.38,1.27,1.27,0,0,0-.94.38,1.34,1.34,0,0,0-.38,1,1.3,1.3,0,0,0,1.32,1.32A1.33,1.33,0,0,0,472.72,173.78ZM478,169.7h3.27l-7.07,12.77H471Zm.75,12.59a3.28,3.28,0,0,1-1.66-2.89,3.41,3.41,0,0,1,.44-1.69,3.29,3.29,0,0,1,2.9-1.67,3.41,3.41,0,0,1,1.69.44,3.27,3.27,0,0,1,1.22,1.23,3.32,3.32,0,0,1,.45,1.69,3.25,3.25,0,0,1-.45,1.68,3.37,3.37,0,0,1-2.91,1.66A3.25,3.25,0,0,1,478.78,182.29Zm2.61-1.9a1.24,1.24,0,0,0,.38-.94,1.3,1.3,0,0,0-1.33-1.35,1.27,1.27,0,0,0-.94.38,1.34,1.34,0,0,0-.37,1,1.28,1.28,0,0,0,1.31,1.32A1.31,1.31,0,0,0,481.39,180.39Z"/><polygon class="cls-23" points="473.85 134.16 471.17 131.49 458.11 144.55 447.49 133.92 432.91 148.5 429.06 144.65 421.26 152.45 421.24 152.58 421.24 161.9 484.27 161.9 484.27 123.73 473.85 134.16"/></g></g></svg>